<?xml version="1.0" encoding="utf-8"?>
<!-- Generator: Adobe Illustrator 24.3.0, SVG Export Plug-In . SVG Version: 6.00 Build 0)  -->
<svg version="1.1" id="Calque_1" xmlns="http://www.w3.org/2000/svg" xmlns:xlink="http://www.w3.org/1999/xlink" x="0px" y="0px"
	 viewBox="0 0 211 68" style="enable-background:new 0 0 211 68;" xml:space="preserve">
<style type="text/css">
	.st0{fill:#FF6060;}
</style>
<path class="st0" d="M20.1,34.6L8.8,46.1v16.1H0V0h8.8v34.8L42.4,0h10.1L26.2,28l28.2,34.3H44L20.1,34.6z"/>
<path class="st0" d="M118.8,57.3l3.5-6.7c4.1,2.8,10.3,4.8,16.4,4.8c7.9,0,11.1-2.4,11.1-6.5c0-10.6-29.7-1.5-29.7-20.2
	c0-8.5,7.6-14.1,19.5-14.1c6.1,0,13.1,1.7,17.1,4.3l-3.7,6.7c-4.2-2.8-8.8-3.7-13.4-3.7c-7.4,0-11.1,2.8-11.1,6.5
	c0,11.1,29.7,2,29.7,20.4c0,8.5-7.7,13.9-20.3,13.9C130.4,62.8,122.7,60.4,118.8,57.3z"/>
<path class="st0" d="M210.3,33.7v28.5h-8.1V56c-2.8,4.3-8.1,6.7-15.5,6.7c-10.7,0-17.3-5.7-17.3-13.9c0-7.6,4.8-13.7,18.8-13.7h13.4
	v-1.7c0-7.2-4.2-11.3-12.5-11.3c-5.5,0-11.2,2-14.9,5l-3.5-6.5c4.8-3.9,11.8-6.1,19.3-6.1C203.1,14.6,210.3,20.9,210.3,33.7z
	 M201.9,47.8v-6.7h-13.1c-8.5,0-10.9,3.3-10.9,7.2c0,4.6,3.9,7.6,10.3,7.6C194.7,56.1,199.8,53.4,201.9,47.8z"/>
<path class="st0" d="M91.5,49.8v12.6l5.3-3.1V46.7L91.5,49.8z"/>
<path class="st0" d="M106.3,34.5l-22-12.8l-12.2-7l-12,20.9l0.2,19.6L82.1,68l2.2-1.3V48.2L94.1,31l9.9,5.7v18.5l2.2-1.3V34.5H106.3
	z"/>
</svg>
